<?xml version="1.0" encoding="UTF-8" standalone="no"?>
<svg
   xmlns:dc="http://purl.org/dc/elements/1.1/"
   xmlns:cc="http://creativecommons.org/ns#"
   xmlns:rdf="http://www.w3.org/1999/02/22-rdf-syntax-ns#"
   xmlns:svg="http://www.w3.org/2000/svg"
   xmlns="http://www.w3.org/2000/svg"
   xmlns:sodipodi="http://sodipodi.sourceforge.net/DTD/sodipodi-0.dtd"
   xmlns:inkscape="http://www.inkscape.org/namespaces/inkscape"
   sodipodi:docname="dist.svg"
   inkscape:version="1.0 (4035a4fb49, 2020-05-01)"
   id="svg66"
   version="1.1"
   viewBox="0 0 210 297"
   height="297mm"
   width="210mm">
  <defs
     id="defs60" />
  <sodipodi:namedview
     inkscape:window-maximized="0"
     inkscape:window-y="0"
     inkscape:window-x="260"
     inkscape:window-height="1041"
     inkscape:window-width="1375"
     showgrid="false"
     inkscape:document-rotation="0"
     inkscape:current-layer="layer1"
     inkscape:document-units="mm"
     inkscape:cy="479.38564"
     inkscape:cx="233.10804"
     inkscape:zoom="1.4"
     inkscape:pageshadow="2"
     inkscape:pageopacity="0.0"
     borderopacity="1.0"
     bordercolor="#666666"
     pagecolor="#ffffff"
     id="base" />
  <metadata
     id="metadata63">
    <rdf:RDF>
      <cc:Work
         rdf:about="">
        <dc:format>image/svg+xml</dc:format>
        <dc:type
           rdf:resource="http://purl.org/dc/dcmitype/StillImage" />
        <dc:title></dc:title>
      </cc:Work>
    </rdf:RDF>
  </metadata>
  <g
     id="layer1"
     inkscape:groupmode="layer"
     inkscape:label="Layer 1">
    <g
       transform="matrix(0.48506944,0,0,0.48506944,71.739882,114.82917)"
       id="g90"
       style="fill:none;stroke:#ffffff;stroke-width:1.5;stroke-linecap:round;stroke-linejoin:round">
      <path
         stroke="none"
         d="M 0,0 H 24 V 24 H 0 Z"
         id="path70" />
      <polyline
         points="12 4 4 8 12 12 20 8 12 4"
         id="polyline72" />
      <polyline
         points="4 12 12 16 20 12"
         id="polyline74" />
      <polyline
         points="4 16 12 20 20 16"
         id="polyline76" />
    </g>
    <g
       transform="matrix(0,-0.48506944,0.48506944,0,77.075646,126.47084)"
       id="g118"
       style="fill:none;stroke:#ffffff;stroke-width:1.5;stroke-linecap:round;stroke-linejoin:round">
      <path
         stroke="none"
         d="M 0,0 H 24 V 24 H 0 Z"
         id="path92" />
      <rect
         x="3"
         y="15"
         width="6"
         height="6"
         rx="2"
         id="rect94" />
      <rect
         x="15"
         y="15"
         width="6"
         height="6"
         rx="2"
         id="rect96" />
      <path
         d="m 6,15 v -1 a 2,2 0 0 1 2,-2 h 8 a 2,2 0 0 1 2,2 v 1"
         id="path100" />
      <line
         x1="12"
         y1="9"
         x2="12"
         y2="12"
         id="line102" />
    </g>
  </g>
</svg>
